<?xml version="1.0" encoding="UTF-8" standalone="no"?>
<svg
   width="2944.5166mm"
   height="2024.5077mm"
   viewBox="0 0 2944.5167 2024.5077"
   version="1.1"
   id="svg5"
   xml:space="preserve"
   sodipodi:docname="logo.svg"
   inkscape:version="1.2 (dc2aeda, 2022-05-15)"
   xmlns:inkscape="http://www.inkscape.org/namespaces/inkscape"
   xmlns:sodipodi="http://sodipodi.sourceforge.net/DTD/sodipodi-0.dtd"
   xmlns="http://www.w3.org/2000/svg"
   xmlns:svg="http://www.w3.org/2000/svg"><sodipodi:namedview
     id="namedview10"
     pagecolor="#505050"
     bordercolor="#eeeeee"
     borderopacity="1"
     inkscape:showpageshadow="0"
     inkscape:pageopacity="0"
     inkscape:pagecheckerboard="0"
     inkscape:deskcolor="#505050"
     inkscape:document-units="mm"
     showgrid="false"
     inkscape:zoom="0.030842889"
     inkscape:cx="5592.8612"
     inkscape:cy="12012.493"
     inkscape:window-width="1440"
     inkscape:window-height="779"
     inkscape:window-x="0"
     inkscape:window-y="25"
     inkscape:window-maximized="1"
     inkscape:current-layer="svg5" /><defs
     id="defs2" /><rect
     style="fill:#ffffff;stroke-width:3.50369"
     id="rect291"
     width="4117.6426"
     height="3053.9185"
     x="-274.50949"
     y="2015.9291"
     ry="4.4123945" /><g
     id="layer1"
     transform="translate(-640.147,3177.7595)"><path
       style="fill:#4338ca;fill-opacity:1;stroke:#4338ca;stroke-width:0.815889;stroke-dasharray:none;stroke-opacity:1"
       d="m 2377.6343,678.10988 c -16.2855,-2.37278 -29.7457,-6.98077 -50.0975,-17.15081 l -11.8837,-5.93842 -16.2842,-0.12477 c -8.9563,-0.0686 -16.6267,-0.33608 -17.0453,-0.59505 -0.4188,-0.25883 -55.1447,-0.73582 -121.6134,-1.06034 l -120.8524,-0.58998 -6.1387,-1.82722 c -33.3404,-9.92456 -58.5596,-37.67137 -65.904,-72.50941 -1.7103,-8.11307 -1.9404,-24.76295 -0.4571,-33.09884 1.5579,-8.75617 5.2846,-20.09761 7.7936,-23.71812 3.1488,-4.54374 9.0752,-7.5132 15.052,-7.54173 4.047,-0.0217 6.2131,0.61851 13.725,4.04179 11.8982,5.42214 27.9899,11.3482 47.053,17.32791 21.1933,6.64793 53.9596,15.82863 54.5141,15.27404 0.247,-0.24693 -11.1053,-6.1304 -25.2278,-13.07389 -81.4032,-40.02233 -325.673,-162.29515 -329.7353,-165.05383 -24.1496,-16.3997 -39.278,-47.37458 -39.2903,-80.44575 0,-9.53877 1.5254,-15.87915 5.2395,-21.72832 2.5703,-4.04767 10.0972,-11.04092 14.0515,-13.05519 10.9043,-5.55426 25.088,-5.8811 35.1299,-0.80946 4.1418,2.09186 69.1931,47.20847 281.5611,195.27826 74.0953,51.66166 71.6662,49.98725 69.9798,48.23946 -1.0154,-1.05233 -140.8348,-105.85377 -209.9396,-157.35994 -10.3538,-7.71702 -37.2407,-27.78946 -59.7489,-44.60542 -22.5081,-16.8159 -47.1852,-35.23116 -54.838,-40.92273 -7.6527,-5.6916 -26.4368,-19.68928 -41.7424,-31.10607 -39.7944,-29.6835 -89.3408,-66.34405 -99.8543,-73.88442 -12.1744,-8.7317 -18.0847,-14.05048 -23.5431,-21.18714 -12.4611,-16.29228 -18.5936,-37.619352 -17.4956,-60.845332 0.9439,-19.96757 3.6352,-28.52451 11.7165,-37.25334 8.2824,-8.94598 21.2378,-13.48994 33.188,-11.64025 9.0669,1.40344 15.8996,5.31171 26.4368,15.1214 4.9621,4.61966 38.6547,35.83876 74.8723,69.375912 77.7582,72.00324 221.7844,205.59952 236.9489,219.7899 5.8521,5.47617 24.452,22.77 41.3331,38.43075 16.8812,15.66075 32.9029,30.55337 35.6038,33.09478 2.701,2.54141 10.2515,9.56223 16.7789,15.60186 6.5273,6.03952 21.543,19.99295 33.3681,31.0075 11.8252,11.01451 22.1379,20.48628 22.9174,21.04833 1.8605,1.34168 -327.4041,-326.99691 -454.2358,-452.958252 -28.6789,-28.48199 -53.9748,-54.23102 -56.2132,-57.21998 -38.1475,-50.9385 -26.3125,-128.791198 30.2655,-199.091598 11.5197,-14.3137 18.5298,-19.2616 30.2588,-21.3577 15.7478,-2.8143 33.1148,5.9748 40.8544,20.6757 4.6528,8.8377 51.4308,76.7776 158.8158,230.662458 10.2095,14.63029971 31.023,44.4638 46.2523,66.29672 47.4631,68.043422 68.7296,98.482132 168.9802,241.860232 82.0291,117.31782 84.4236,120.7255 84.833,120.7255 0.4755,0 3.0353,3.94284 -97.2406,-149.78148 -16.8846,-25.88438 -35.8503,-54.98125 -42.1459,-64.65975 -6.2957,-9.6785 -32.4395,-49.82484 -58.0973,-89.21407 -122.9835,-188.800712 -193.3137,-297.48991 -221.6946,-342.60961 -12.0636,-19.1786 -12.5189,-20.0661 -16.5845,-32.3299 -7.2798,-21.9592 -9.712,-38.6433 -8.9112,-61.1298 0.9596,-26.9499 6.7554,-49.5385 19.2949,-75.2013 34.534,-70.6752 107.5318,-123.01 200.645,-143.8495 24.2743,-5.4329 58.9904,-8.5889 68.0294,-6.1847 9.9321,2.6418 19.9232,10.7545 24.331,19.7568 4.0044,8.1782 4.6341,13.0042 3.5023,26.843 -2.0035,24.4993 -1.6538,27.343 8.0037,65.0971 16.4358,64.2519 64.3742,230.8383 120.4749,418.651428 5.8493,19.58204971 14.8684,49.78388 20.0425,67.11515 19.3314,64.753342 62.0164,206.454492 93.8653,311.604172 1.3924,4.59691 2.6423,8.24728 2.7775,8.11199 0.1351,-0.13504 -11.1572,-46.0685 -25.0944,-102.07379 -83.5381,-335.688252 -157.6014,-651.02555 -171.5488,-730.39805 -1.2875,-7.3272 -2.0099,-14.5528 -2.0099,-20.1047 0,-32.0675 12.1624,-69.306 32.6028,-99.823 21.2844,-31.7768 50.2125,-57.9581 87.3041,-79.014 58.4567,-33.1842 133.3414,-47.6713 204.6196,-39.5854 95.6153,10.8468 177.1913,58.5334 218.5565,127.7608 16.049,26.8589 24.6565,54.6282 26.9703,87.0097 1.0993,15.3835 -6.7782,58.7188 -28.7151,157.9663 -23.5531,106.5596 -54.3883,235.276898 -101.0756,421.925298 -24.6897,98.706102 -49.8046,197.674602 -63.8476,251.599682 -2.6845,10.30857 -4.7658,19.08823 -4.625,19.5105 0.1405,0.42199 3.1434,-8.74865 6.6726,-20.37973 3.5292,-11.63106 9.8383,-32.38102 14.0203,-46.11097 13.4395,-44.12339 26.5345,-87.3145 34.4933,-113.76844 4.2663,-14.18015 16.3504,-54.3265 26.8537,-89.214072 18.6169,-61.83775 47.8541,-159.51737 54.8764,-183.33907 1.9242,-6.5274 9.2147,-31.204498 16.2011,-54.837998 16.0416,-54.2655 15.4262,-52.1654 33.5849,-114.6185 33.1333,-113.9551 54.6066,-192.7025 58.2093,-213.4671 1.3321,-7.6782 1.2607,-10.4977 -0.884,-34.9094 -1.6597,-18.8905 11.2173,-37.3949 28.7717,-41.3454 5.5317,-1.2449 16.6638,-1.088 30.7468,0.4333 106.9896,11.557 198.8245,69.4307 237.6568,149.7698 12.9252,26.7407 18.2526,48.028 19.0079,75.9516 0.6026,22.2814 -1.5565,38.4178 -7.6883,57.4603 -4.1511,12.8916 -6.2275,17.0887 -16.612,33.5812 -29.9848,47.6215 -134.3136,208.637448 -272.8369,421.08325 -19.8129,30.38599 -43.8176,67.21755 -53.3437,81.84784 -9.5262,14.6303 -34.6192,53.11918 -55.7621,85.5309 -21.143,32.41176 -38.7523,59.48291 -39.132,60.15815 -2.3326,4.14943 3.9917,-4.6664 28.7712,-40.10543 15.2657,-21.83287 52.9942,-75.79102 83.8411,-119.907 124.4343,-177.961752 246.8476,-353.533112 298.7436,-428.47321 27.3826,-39.5418 44.884,-65.3591 46.6063,-68.7521 4.9566,-9.7642 10.9977,-16.096 19.1698,-20.0916 11.4469,-5.597 23.1085,-5.6096 34.3834,-0.038 6.7605,3.3412 12.2413,8.5286 21.469,20.3197 28.2856,36.1433 45.2023,73.932 49.3735,110.2918 1.3161,11.4725 0.5501,32.476098 -1.5378,42.163498 -3.2924,15.2763 -10.6137,31.84211 -19.1714,43.37927 -2.3374,3.15117 -22.8623,24.13584 -45.6109,46.63265971 C 3009.8143,102.80676 2646.7593,463.53015 2646.7593,464.01142 c 0,0.51167 -0.011,0.5187 21.3101,-19.18632 9.6949,-8.96132 31.9722,-29.55269 49.5051,-45.75851 17.5329,-16.20588 42.0125,-38.87496 54.399,-50.37565 22.0219,-20.44688 123.5331,-114.34427 271.6051,-251.233502 44.8301,-41.44441 75.8604,-69.53082 78.8406,-71.36112 5.0615,-3.10854 13.6416,-5.5856 19.2716,-5.56371 9.1271,0.0378 20.4781,4.90111 27.2636,11.68661 8.1667,8.16667 11.2587,18.01051 12.0162,38.25509 0.853,22.79757 -3.7571,40.578442 -14.7416,56.857592 -5.8734,8.7044 -12.7949,14.95627 -32.8615,29.68178 -30.8608,22.64644 -452.448,339.05255 -454.2783,340.94105 -0.9004,0.92897 -1.0845,1.30261 -0.409,0.83026 0.6752,-0.47224 27.9306,-19.62932 60.5673,-42.57126 100.771,-70.83647 129.2647,-90.83327 189.4777,-132.97496 80.1941,-56.12604 93.854,-65.50921 98.5289,-67.68071 4.1759,-1.9397 5.545,-2.13844 14.8728,-2.15849 l 10.2733,-0.0217 6.3541,3.14038 c 15.0519,7.43906 22.6906,21.20668 21.3891,38.5507 -1.6685,22.2346 -6.6424,38.34203 -16.5571,53.61807 -9.9542,15.33704 -20.4723,23.76221 -44.01,35.25285 -9.0033,4.3952 -57.6209,28.51753 -108.0392,53.60531 -50.4182,25.08762 -122.3857,60.86182 -159.9277,79.49824 -37.5419,18.63638 -68.0959,34.04646 -67.8977,34.24465 0.4722,0.47224 47.6513,-13.0338 62.9021,-18.00677 16.3664,-5.33679 29.1744,-10.15546 40.1856,-15.1185 12.7471,-5.74558 18.7167,-5.79993 26.0102,-0.23664 8.0032,6.10435 13.9513,33.32873 11.576,52.98357 -4.4978,37.21799 -28.6532,66.69616 -64.9193,79.22465 l -7.5324,2.6021 -121.2643,0.54864 c -66.6953,0.3015 -121.6026,0.75759 -122.016,1.01312 -0.4133,0.25557 -8.2738,0.52951 -17.4676,0.60894 l -16.7161,0.14434 -12.2095,6.10723 c -6.7152,3.35903 -15.3706,7.38521 -19.2342,8.94701 -19.7975,8.00301 -44.5786,11.03622 -65.3915,8.00383 z"
       id="path1654" /><text
       xml:space="preserve"
       style="font-weight:bold;font-size:419.353px;font-family:sans-serif;-inkscape-font-specification:'sans-serif, Bold';letter-spacing:0px;word-spacing:-39.6875px;fill:none;fill-opacity:0.95;stroke:#4338ca;stroke-width:16.2097"
       x="2394.3672"
       y="1093.1179"
       id="text342"><tspan
         x="2394.3672"
         y="1093.1179"
         style="font-style:normal;font-variant:normal;font-weight:bold;font-stretch:normal;font-size:419.353px;font-family:Damascus;-inkscape-font-specification:'Damascus, Bold';font-variant-ligatures:normal;font-variant-caps:normal;font-variant-numeric:normal;font-variant-east-asian:normal;text-align:center;text-anchor:middle;fill:#000000;fill-opacity:1;stroke:none;stroke-width:16.2097"
         id="tspan1111">seaside code</tspan></text><text
       xml:space="preserve"
       style="font-style:normal;font-variant:normal;font-weight:normal;font-stretch:normal;font-size:176.389px;font-family:'Times New Roman';-inkscape-font-specification:'Times New Roman, Normal';font-variant-ligatures:normal;font-variant-caps:normal;font-variant-numeric:normal;font-variant-east-asian:normal;text-align:center;letter-spacing:26.4583px;word-spacing:39.6875px;text-anchor:middle;fill:#000000;fill-opacity:1;stroke:none;stroke-width:3"
       x="2394.7183"
       y="1314.5778"
       id="text1121"><tspan
         id="tspan1119"
         style="font-style:normal;font-variant:normal;font-weight:normal;font-stretch:normal;font-size:176.389px;font-family:'Times New Roman';-inkscape-font-specification:'Times New Roman, Normal';font-variant-ligatures:normal;font-variant-caps:normal;font-variant-numeric:normal;font-variant-east-asian:normal;stroke-width:3"
         x="2407.9475"
         y="1314.5778">SOFTWARE SOLUTIONS</tspan></text></g></svg>
