<?xml version="1.0" encoding="UTF-8" standalone="no"?>
<!-- Created with Inkscape (http://www.inkscape.org/) -->

<svg
   width="290.77988mm"
   height="256.51834mm"
   viewBox="0 0 290.77988 256.51834"
   version="1.1"
   id="svg5"
   inkscape:version="1.2 (dc2aeda, 2022-05-15)"
   sodipodi:docname="lighthouse.svg"
   xml:space="preserve"
   xmlns:inkscape="http://www.inkscape.org/namespaces/inkscape"
   xmlns:sodipodi="http://sodipodi.sourceforge.net/DTD/sodipodi-0.dtd"
   xmlns="http://www.w3.org/2000/svg"
   xmlns:svg="http://www.w3.org/2000/svg"><sodipodi:namedview
     id="namedview7"
     pagecolor="#505050"
     bordercolor="#eeeeee"
     borderopacity="1"
     inkscape:showpageshadow="0"
     inkscape:pageopacity="0"
     inkscape:pagecheckerboard="0"
     inkscape:deskcolor="#505050"
     inkscape:document-units="mm"
     showgrid="false"
     inkscape:zoom="0.31625281"
     inkscape:cx="339.91793"
     inkscape:cy="573.90795"
     inkscape:window-width="1440"
     inkscape:window-height="779"
     inkscape:window-x="0"
     inkscape:window-y="25"
     inkscape:window-maximized="1"
     inkscape:current-layer="layer1" /><defs
     id="defs2" /><g
     inkscape:label="Layer 1"
     inkscape:groupmode="layer"
     id="layer1"
     transform="translate(-296.54905,339.06808)"><path
       style="fill:#4338ca;fill-opacity:1;stroke-width:0.151479"
       d="m 438.63373,-82.763407 c -3.01401,-0.43914 -5.50515,-1.29196 -9.27174,-3.17417 l -2.19937,-1.09905 -3.01379,-0.0231 c -1.65758,-0.0127 -3.07717,-0.0622 -3.15464,-0.11013 -0.0775,-0.0479 -10.20585,-0.13618 -22.50752,-0.19624 l -22.36666,-0.10919 -1.1361,-0.33817 c -6.17046,-1.83678 -10.83788,-6.972 -12.19713,-13.419623 -0.31654,-1.50152 -0.35912,-4.58298 -0.0846,-6.12574 0.28832,-1.62054 0.97803,-3.71955 1.44239,-4.38961 0.58277,-0.84093 1.67959,-1.3905 2.78573,-1.39578 0.749,-0.004 1.14989,0.11447 2.54015,0.74803 2.20205,1.0035 5.18021,2.10026 8.7083,3.20695 3.92232,1.23036 9.98652,2.92947 10.08915,2.82683 0.0457,-0.0457 -2.05531,-1.13458 -4.66902,-2.41964 -15.06563,-7.4071 -60.27365,-30.03664 -61.02549,-30.5472 -4.46946,-3.03516 -7.26933,-8.76781 -7.27161,-14.88843 -6e-4,-1.76538 0.2823,-2.93882 0.96969,-4.02135 0.47569,-0.74912 1.86874,-2.04339 2.60058,-2.41618 2.01809,-1.02795 4.64313,-1.08844 6.50163,-0.14981 0.76654,0.38715 12.80585,8.73707 52.10968,36.14096 13.71313,9.56124 13.26357,9.25135 12.95146,8.92788 -0.18792,-0.19476 -26.06488,-19.5908 -38.85439,-29.12326 -1.91622,-1.42822 -6.8923,-5.14311 -11.05798,-8.25531 -4.16568,-3.11219 -8.73277,-6.52038 -10.1491,-7.57374 -1.41633,-1.05337 -4.89278,-3.64398 -7.72544,-5.75693 -7.36492,-5.49365 -16.53467,-12.27857 -18.48045,-13.6741 -2.25318,-1.61601 -3.34701,-2.60038 -4.35723,-3.92119 -2.30623,-3.01528 -3.44118,-6.96237 -3.23798,-11.2609 0.1747,-3.69548 0.67278,-5.27915 2.16842,-6.89463 1.53287,-1.65567 3.93058,-2.49664 6.14224,-2.15431 1.67805,0.25974 2.94262,0.98306 4.89277,2.79858 0.91836,0.85498 7.15399,6.63283 13.85694,12.83969 14.39102,13.32594 41.04655,38.05116 43.85311,40.67743 1.08308,1.0135 4.52544,4.21414 7.6497,7.11254 3.12426,2.8984 6.08946,5.65464 6.58934,6.12499 0.49988,0.47035 1.89728,1.76972 3.10533,2.8875 1.20804,1.11776 3.98706,3.70018 6.17558,5.73869 2.18853,2.0385 4.09716,3.79148 4.24142,3.8955 0.34433,0.24831 -60.59405,-60.51868 -84.06732,-83.83087 -5.30771,-5.27128 -9.98933,-10.03676 -10.40361,-10.58994 -7.06011,-9.42741 -4.86976,-23.83593 5.60137,-36.84671 2.132,-2.64909 3.42939,-3.56483 5.60012,-3.95276 2.91451,-0.52085 6.12869,1.10579 7.56109,3.82654 0.86112,1.63562 9.51852,14.20954 29.39271,42.68966 1.8895,2.70769 5.74155,8.2291 8.5601,12.26981 8.78419,12.59308 12.72008,18.2265 31.27387,44.76208 15.18147,21.7125 15.62464,22.34317 15.70042,22.34317 0.088,0 0.56175,0.72972 -17.99674,-27.72068 -3.12491,-4.79053 -6.63497,-10.17561 -7.80013,-11.96685 -1.16516,-1.79124 -6.0037,-9.22129 -10.75231,-16.51122 -22.76106,-34.94214 -35.77736,-55.05769 -41.02993,-63.40818 -2.23267,-3.54947 -2.31693,-3.71373 -3.06937,-5.98343 -1.34731,-4.06408 -1.79744,-7.15188 -1.64924,-11.31356 0.17761,-4.98772 1.25025,-9.16829 3.571,-13.91781 6.39135,-13.08016 19.90135,-22.76597 37.1342,-26.62283 4.49255,-1.00548 10.91761,-1.58959 12.59048,-1.14463 1.83818,0.48894 3.68728,1.99039 4.50305,3.65647 0.74111,1.51358 0.85765,2.40674 0.64819,4.96795 -0.3708,4.53418 -0.30609,5.06048 1.48127,12.04779 3.04184,11.89138 11.91401,42.72222 22.29681,77.48157 1.08255,3.62413 2.75175,9.21371 3.70934,12.42128 3.57775,11.98417 11.47764,38.20939 17.37205,57.66988 0.25769,0.85077 0.48902,1.52636 0.51405,1.50132 0.025,-0.025 -2.06491,-8.52609 -4.64433,-18.89122 -15.46074,-62.12722 -29.16796,-120.48801 -31.74927,-135.17781 -0.23829,-1.35608 -0.37198,-2.69335 -0.37198,-3.72087 0,-5.93486 2.25094,-12.82675 6.03394,-18.47465 3.93918,-5.88106 9.29305,-10.72654 16.15775,-14.62345 10.81882,-6.14154 24.67804,-8.82272 37.86979,-7.32623 17.69594,2.00746 32.79355,10.83301 40.44918,23.64521 2.97024,4.9709 4.56328,10.11028 4.9915,16.10326 0.20344,2.84709 -1.25448,10.86732 -5.31442,29.23547 -4.35907,19.72145 -10.06588,43.54369 -18.70648,78.08749 -4.56944,18.26795 -9.21756,36.58446 -11.81655,46.5646 -0.49684,1.90785 -0.88202,3.53274 -0.85596,3.61089 0.026,0.0781 0.58175,-1.61915 1.23492,-3.77176 0.65316,-2.15261 1.82082,-5.99289 2.5948,-8.53395 2.48729,-8.1661 4.91085,-16.15966 6.38382,-21.0556 0.78957,-2.62438 3.02602,-10.05443 4.96991,-16.51122 3.44551,-11.44457 8.85656,-29.52255 10.15622,-33.93133 0.35611,-1.20804 1.7054,-5.77514 2.99839,-10.1491 2.96889,-10.04313 2.85499,-9.65446 6.21571,-21.21291 6.13211,-21.09015 10.10626,-35.66427 10.77303,-39.50725 0.24654,-1.42103 0.23333,-1.94286 -0.1636,-6.46082 -0.30717,-3.49615 2.07602,-6.92084 5.3249,-7.65198 1.02377,-0.23039 3.08404,-0.20136 5.69043,0.0802 19.80102,2.13889 36.79728,12.84983 43.98414,27.71852 2.39212,4.94902 3.37809,8.88874 3.51786,14.05667 0.11153,4.12371 -0.28806,7.11015 -1.42289,10.63442 -0.76827,2.3859 -1.15255,3.16268 -3.07445,6.21502 -5.54943,8.8135 -24.85799,38.6134 -50.49507,77.93163 -3.66686,5.62366 -8.1095,12.44023 -9.87255,15.14792 -1.76305,2.70769 -6.40711,9.83099 -10.32012,15.82956 -3.91301,5.99858 -7.17205,11.00875 -7.24231,11.13372 -0.43171,0.76795 0.73876,-0.86363 5.3248,-7.42248 2.82529,-4.0407 9.80786,-14.02696 15.51681,-22.19169 23.02958,-32.93612 45.68513,-65.42985 55.28973,-79.29932 5.06782,-7.31816 8.30686,-12.09628 8.62563,-12.72424 0.91733,-1.8071 2.03539,-2.97895 3.54782,-3.71844 2.11854,-1.03586 4.27679,-1.03819 6.36349,-0.007 1.2512,0.61837 2.26555,1.57843 3.97336,3.76065 5.23494,6.68919 8.36577,13.68291 9.13775,20.41216 0.24359,2.12326 0.10181,6.01048 -0.2846,7.80337 -0.60934,2.82725 -1.96432,5.89316 -3.54813,8.02839 -0.43259,0.5832 -4.23122,4.46692 -8.44141,8.6305 -19.15621,18.94411 -86.34831,85.70469 -86.34831,85.79376 0,0.0947 -0.002,0.096 3.94396,-3.55089 1.79427,-1.65851 5.91722,-5.46944 9.1621,-8.46872 3.24489,-2.99929 7.77543,-7.19475 10.06786,-9.32323 4.07568,-3.78419 22.86278,-21.16217 50.26709,-46.49683 8.29689,-7.67029 14.03979,-12.86836 14.59135,-13.2071 0.93676,-0.57531 2.52472,-1.03375 3.56668,-1.0297 1.68919,0.007 3.78997,0.90707 5.04579,2.16289 1.51144,1.51144 2.0837,3.33328 2.22388,7.08003 0.15787,4.21924 -0.69534,7.51002 -2.72828,10.52287 -1.08701,1.61096 -2.36801,2.76802 -6.08182,5.49333 -5.71154,4.19127 -83.73644,62.74987 -84.07518,63.09938 -0.16663,0.17193 -0.20071,0.24108 -0.0757,0.15366 0.12497,-0.0874 5.16923,-3.63288 11.20946,-7.87884 18.65009,-13.11 23.92354,-16.81089 35.06742,-24.61023 14.84186,-10.38748 17.36994,-12.12406 18.23515,-12.52595 0.77286,-0.35899 1.02624,-0.39577 2.75257,-0.39948 l 1.90133,-0.004 1.17597,0.5812 c 2.78573,1.37678 4.19945,3.92481 3.95857,7.13474 -0.3088,4.11505 -1.22934,7.09612 -3.06429,9.92332 -1.84227,2.83849 -3.7889,4.39777 -8.14512,6.52439 -1.66627,0.81344 -10.66413,5.27786 -19.99525,9.92096 -9.33111,4.64307 -22.65043,11.26395 -29.59849,14.71307 -6.94804,3.44911 -12.6028,6.30112 -12.56612,6.3378 0.0874,0.0874 8.81903,-2.41222 11.64157,-3.33259 3.02898,-0.9877 5.39941,-1.87951 7.43731,-2.79804 2.35915,-1.06336 3.46398,-1.07342 4.81382,-0.0438 1.48118,1.12976 2.58201,6.16829 2.14242,9.80589 -0.83243,6.888093 -5.30297,12.343743 -12.01489,14.662443 l -1.39405,0.48158 -22.44289,0.10154 c -12.34359,0.0558 -22.5055,0.14021 -22.58201,0.1875 -0.0765,0.0473 -1.53127,0.098 -3.2328,0.1127 l -3.09372,0.0267 -2.25966,1.13029 c -1.24281,0.62167 -2.84471,1.36681 -3.55976,1.65586 -3.66401,1.48115 -8.25035,2.04252 -12.10228,1.4813 z"
       id="path1654" /></g></svg>
