<?xml version="1.0" encoding="UTF-8" standalone="no"?>
<!-- Created with Inkscape (http://www.inkscape.org/) -->

<svg
   width="90.355194mm"
   height="42.572357mm"
   viewBox="0 0 90.355194 42.572357"
   version="1.1"
   id="svg5"
   xml:space="preserve"
   xmlns="http://www.w3.org/2000/svg"
   xmlns:svg="http://www.w3.org/2000/svg"><defs
     id="defs2" /><g
     id="layer1"
     transform="translate(-336.32108,-260.18877)"><path
       id="path33027"
       style="fill:#1d381d;fill-opacity:0.95;stroke:none;stroke-width:3;stroke-dasharray:none;stroke-opacity:1"
       d="m 372.7142,260.18877 c -9.3955,-2e-5 -17.91786,1.97915 -24.16855,5.19296 a 37.229576,7.1112676 0 0 0 -12.22458,5.2648 37.229576,7.1112676 0 0 0 3.04581,2.81068 c -0.89229,1.63055 -1.37251,3.35408 -1.37252,5.13715 1e-5,3.10288 1.52886,5.24533 4.19509,6.72673 l -4.65605,6.12107 c -1.51048,1.98571 -1.53572,5.20208 -0.0568,7.21145 l 0.0248,0.0336 c 1.47888,2.00937 3.88558,2.02861 5.39606,0.0429 l 7.27035,-9.55808 c 0.31251,-0.41083 0.56049,-0.87483 0.74569,-1.36942 6.21424,0.85383 14.15049,0.83097 22.63738,0.83095 2.51283,-8e-4 4.94793,0.19675 7.29258,0.46096 l -3.86953,4.99504 c -1.55944,2.01289 -1.5382,5.22638 0.0481,7.20525 1.58626,1.97886 4.11876,1.95139 5.6782,-0.0615 l 7.50652,-9.68881 c 0.28279,-0.36501 0.51253,-0.76996 0.69143,-1.19941 4.85945,0.44225 8.95861,0.1595 11.97602,-2.6541 2.4062,0.61761 5.13186,0.94274 7.90597,0.94309 8.77954,1e-4 15.89674,-3.18402 15.89619,-7.11171 -10e-5,-3.92747 -7.1171,-7.11129 -15.89619,-7.11119 -1.40222,2.3e-4 -2.79825,0.0835 -4.15168,0.24753 -0.0902,-0.21857 -0.18919,-0.43535 -0.29352,-0.65061 a 37.229576,7.1112676 0 0 0 4.4452,-3.36155 37.229576,7.1112676 0 0 0 -14.70504,-5.66219 c -6.22189,-3.00034 -14.46147,-4.79524 -23.36085,-4.79557 z" /></g></svg>
